<?xml version="1.0" standalone="no"?><!DOCTYPE svg PUBLIC "-//W3C//DTD SVG 1.1//EN" "http://www.w3.org/Graphics/SVG/1.1/DTD/svg11.dtd"><svg height="823" node-id="1" sillyvg="true" template-height="823" template-width="823" version="1.1" viewBox="0 0 823 823" width="823" xmlns="http://www.w3.org/2000/svg" xmlns:xlink="http://www.w3.org/1999/xlink"><defs node-id="92"></defs><path d="M 262.80 89.90 C 349.90 32.50 472.30 44.20 549.30 129.40 C 591.40 176.00 608.50 240.10 652.20 285.70 C 701.40 337.00 760.20 386.90 782.50 456.90 C 806.20 531.30 785.40 616.60 732.40 673.50 C 667.90 742.70 573.10 721.90 483.50 720.80 C 116.60 716.20 -156.10 471.30 190.90 169.40 C 219.90 144.00 234.00 108.80 262.80 89.90 Z" fill="#cce9ff" fill-rule="nonzero" node-id="96" stroke="none" target-height="710.2" target-width="962.30005" target-x="-156.1" target-y="32.5"></path><path d="M 716.60 310.80 C 714.70 311.40 704.70 318.80 704.70 318.80 L 692.90 326.40 L 692.40 322.10 C 692.40 322.10 687.60 312.50 681.70 312.90 C 681.70 312.90 688.80 321.60 689.70 327.40 C 690.60 333.20 691.00 337.20 691.00 337.20 L 691.00 337.20 L 683.20 344.90 L 696.20 361.60 L 726.70 338.80 C 726.70 338.80 718.50 310.20 716.60 310.80 Z" fill="#dba17b" fill-rule="nonzero" node-id="98" stroke="none" target-height="51.399994" target-width="45" target-x="681.7" target-y="310.2"></path><path d="M 722.70 310.80 L 717.40 353.30 L 696.20 353.80 L 691.10 310.80 Z" fill="#55b3ff" fill-rule="nonzero" node-id="100" stroke="none" target-height="43" target-width="31.600037" target-x="691.1" target-y="310.8"></path><path d="M 727.30 311.40 L 687.30 311.40 L 687.30 307.20 L 691.10 307.20 L 691.10 300.60 L 723.60 305.40 L 723.70 307.80 L 727.30 307.80 L 727.30 311.90" fill="#0e538c" fill-rule="nonzero" node-id="102" stroke="none" target-height="11.299988" target-width="40" target-x="687.3" target-y="300.6"></path><path d="M 724.60 339.60 C 732.00 340.30 722.70 320.00 722.70 320.00 C 722.70 320.00 702.70 318.60 702.50 319.70 C 702.30 320.80 702.40 322.60 704.00 323.00 C 705.60 323.40 718.10 325.10 718.10 325.10 C 718.10 325.10 705.10 325.70 705.30 327.10 C 705.70 329.20 707.20 329.40 711.10 330.00 C 714.40 330.50 721.60 330.70 721.60 330.70 C 721.60 330.70 707.90 331.00 708.20 331.90 C 708.50 332.80 707.60 335.60 712.30 334.90 C 723.00 333.50 724.60 339.60 724.60 339.60 Z" fill="#dba17b" fill-rule="nonzero" node-id="104" stroke="none" target-height="21.699982" target-width="29.700012" target-x="702.3" target-y="318.6"></path><path d="M 634.60 421.30 C 634.60 421.30 654.90 564.80 645.50 595.30 C 636.10 625.80 632.40 653.30 632.40 653.30 L 585.20 639.50 C 585.20 639.50 600.80 567.70 603.20 553.90 C 605.50 540.10 581.40 428.00 581.40 428.00 L 634.60 421.30 Z" fill="#0b4870" fill-rule="nonzero" node-id="106" stroke="none" target-height="232" target-width="73.5" target-x="581.4" target-y="421.3"></path><path d="M 612.30 431.60 L 590.00 662.30 L 544.90 662.30 C 544.90 662.30 559.50 418.10 556.90 416.00 C 554.30 414.10 612.30 431.60 612.30 431.60 Z" fill="#0b4870" fill-rule="nonzero" node-id="108" stroke="none" target-height="248.19998" target-width="67.39996" target-x="544.9" target-y="414.1"></path><path d="M 630.10 291.00 C 630.10 291.00 634.90 368.40 645.20 365.60 C 655.60 362.90 683.40 342.70 683.40 342.70 L 700.30 361.30 C 700.30 361.30 648.80 418.60 627.60 395.20 C 606.50 371.70 630.10 291.00 630.10 291.00 Z" fill="#0b4870" fill-rule="nonzero" node-id="110" stroke="none" target-height="127.600006" target-width="93.79999" target-x="606.5" target-y="291"></path><path d="M 616.20 700.90 L 619.30 685.30 L 586.40 672.10 L 581.20 695.30 L 583.00 695.60 C 590.40 699.00 626.30 715.60 631.90 716.10 C 638.10 716.70 616.20 700.90 616.20 700.90 Z" fill="#0b4870" fill-rule="nonzero" node-id="112" stroke="none" target-height="44.600037" target-width="56.899963" target-x="581.2" target-y="672.1"></path><g node-id="272"><path d="M 538.00 473.80 L 541.60 479.00 C 541.60 479.00 543.30 482.50 547.50 487.80 C 548.60 489.20 549.90 490.40 551.40 491.30 C 553.20 492.40 555.70 493.80 557.30 494.20 C 559.30 494.60 559.70 497.20 558.00 498.00 C 556.30 498.70 550.90 497.70 545.70 493.70 C 540.50 489.80 542.90 499.70 543.80 503.40 C 544.60 507.00 546.60 518.40 545.70 519.60 C 544.40 521.30 542.30 520.10 541.60 516.50 C 540.90 512.80 537.90 502.00 536.00 502.60 C 534.10 503.10 538.50 521.60 538.50 521.60 C 538.50 521.60 540.10 525.40 537.90 526.10 C 534.00 527.30 530.70 507.30 530.50 505.40 C 530.30 504.10 528.20 504.60 528.50 506.00 C 528.80 507.50 533.30 524.30 529.40 525.60 C 526.30 526.60 526.60 509.20 523.70 506.20 C 520.80 503.20 524.90 519.40 521.90 520.20 C 520.80 520.50 519.90 520.60 518.90 510.90 C 517.90 501.00 519.50 473.90 519.50 473.90 L 538.30 474.10" fill="#ffe3ca" fill-rule="nonzero" group-id="1" node-id="116" stroke="none" target-height="53.5" target-width="41.799988" target-x="517.9" target-y="473.8"></path></g><path d="M 603.30 265.00 C 602.90 261.90 604.50 249.00 604.50 249.00 C 604.50 249.00 616.30 248.10 617.40 236.50 C 618.50 224.80 618.60 197.80 618.60 197.80 L 597.50 186.60 L 573.30 203.70 L 567.80 216.50 L 575.00 247.00 L 575.00 262.30 L 603.30 265.00 Z" fill="#dba17b" fill-rule="nonzero" node-id="119" stroke="none" target-height="78.399994" target-width="50.799988" target-x="567.8" target-y="186.6"></path><path d="M 604.50 249.00 C 604.50 249.00 596.60 248.80 589.20 243.30 C 589.20 243.30 592.40 252.00 604.20 251.90 L 604.50 249.00 Z" fill="#c68c6b" fill-rule="nonzero" node-id="121" stroke="none" target-height="8.699997" target-width="15.299988" target-x="589.2" target-y="243.3"></path><path d="M 568.20 229.30 C 571.40 236.40 573.30 246.80 573.30 246.80 C 575.00 250.00 575.60 239.80 575.60 239.80 C 575.60 239.80 577.10 230.00 575.70 226.20 C 575.70 226.20 569.70 228.10 568.40 217.40 C 567.70 212.10 575.70 209.60 577.90 216.00 L 582.90 216.50 C 582.90 216.50 583.30 196.50 594.80 200.20 C 594.80 200.20 603.10 205.30 608.10 202.20 C 613.10 199.10 612.70 198.00 612.70 198.00 C 612.70 198.00 615.10 203.30 621.50 199.80 C 627.90 196.30 628.70 190.20 626.50 187.30 C 625.20 185.60 624.00 183.70 621.90 183.30 C 619.80 182.90 617.50 183.80 616.20 185.40 C 617.80 183.10 616.70 179.70 614.30 178.10 C 612.00 176.60 608.90 176.70 606.30 177.70 C 603.70 178.70 601.50 180.50 599.40 182.30 C 597.90 178.10 593.40 175.10 589.00 175.50 C 584.50 175.90 580.60 179.50 579.80 183.90 C 577.40 180.90 572.80 180.20 569.30 181.90 C 565.80 183.60 563.60 187.20 562.90 191.00 C 562.20 194.80 563.00 198.70 564.50 202.30 C 561.80 200.80 558.10 201.90 556.30 204.40 C 554.50 206.90 554.50 210.40 555.80 213.20 C 557.10 216.00 559.60 218.10 562.30 219.50 C 560.30 221.10 559.60 224.30 560.90 226.60 C 562.20 228.90 565.20 230.10 567.60 229.20" fill="#0e538c" fill-rule="nonzero" node-id="123" stroke="none" target-height="74.899994" target-width="74.20001" target-x="554.5" target-y="175.1"></path><path d="M 527.80 295.70 C 527.80 295.70 535.90 258.40 575.00 262.30 C 610.80 265.90 610.80 265.90 610.80 265.90 C 610.80 265.90 635.40 276.30 631.90 305.60 C 628.50 334.90 626.80 361.70 627.70 366.80 C 628.60 372.00 637.20 418.10 634.60 421.30 C 608.80 452.70 542.90 402.60 542.90 402.60 L 527.80 295.70 Z" fill="#55b3ff" fill-rule="nonzero" node-id="125" stroke="none" target-height="194.30002" target-width="109.400024" target-x="527.8" target-y="258.4"></path><path d="M 575.00 262.30 L 565.90 480.20 L 538.80 465.50 L 541.60 272.20 C 541.60 272.20 548.90 259.70 575.00 262.30 Z" fill="#0e538c" fill-rule="nonzero" node-id="127" stroke="none" target-height="220.5" target-width="36.200012" target-x="538.8" target-y="259.7"></path><path d="M 518.50 477.70 L 527.80 295.60 C 530.70 284.40 536.90 275.80 544.90 268.60 L 544.90 480.10 L 518.50 477.70 Z" fill="#0e538c" fill-rule="nonzero" node-id="129" stroke="none" target-height="211.5" target-width="26.400024" target-x="518.5" target-y="268.6"></path><path d="M 603.30 265.00 C 603.30 265.00 627.70 277.10 626.60 318.00 C 625.40 358.90 641.30 474.50 641.30 474.50 L 661.70 470.40 C 661.70 470.40 638.10 360.80 637.10 341.60 C 636.10 322.00 637.80 294.30 624.60 275.20 C 615.10 261.50 603.30 265.00 603.30 265.00 Z" fill="#0e538c" fill-rule="nonzero" node-id="131" stroke="none" target-height="213" target-width="58.400024" target-x="603.3" target-y="261.5"></path><path d="M 575.00 262.30 C 575.00 262.30 567.00 280.30 567.80 286.80 C 568.60 293.40 571.40 307.20 571.40 307.20 C 571.40 307.20 565.50 310.80 566.00 313.90 C 566.40 317.00 571.10 366.00 571.10 366.00 L 575.00 262.30 Z" fill="#0b4870" fill-rule="nonzero" node-id="133" stroke="none" target-height="103.70001" target-width="9.5" target-x="565.5" target-y="262.3"></path><path d="M 544.90 480.20 C 547.40 436.20 546.80 350.80 549.30 306.70" fill="#0b4870" fill-rule="nonzero" group-id="2" node-id="137" stroke="none" target-height="173.5" target-width="4.3999634" target-x="544.9" target-y="306.7"></path><path d="M 616.40 684.20 C 616.00 684.00 624.70 651.10 624.70 651.10 L 595.80 642.70 L 589.70 673.50 L 616.40 684.20 Z" fill="#dba17b" fill-rule="nonzero" node-id="140" stroke="none" target-height="41.5" target-width="35" target-x="589.7" target-y="642.7"></path><path d="M 549.80 662.40 L 582.70 662.40 L 582.70 688.20 L 549.80 688.20 Z" fill="#dba17b" fill-rule="nonzero" node-id="142" stroke="none" target-height="25.799988" target-width="32.900024" target-x="549.8" target-y="662.4"></path><path d="M 585.90 702.20 L 582.90 686.60 L 547.40 686.60 L 551.10 709.60 L 553.00 709.70 C 561.10 710.10 600.60 712.20 606.00 710.60 C 612.20 708.70 585.90 702.20 585.90 702.20 Z" fill="#0b4870" fill-rule="nonzero" node-id="144" stroke="none" target-height="25.600037" target-width="64.79999" target-x="547.4" target-y="686.6"></path><path d="M 307.90 196.00 C 310.70 205.40 313.50 214.80 316.30 224.20 C 316.70 225.50 317.10 226.80 317.00 228.10 C 316.90 232.10 313.20 235.20 309.30 235.90 C 305.40 236.60 301.40 235.60 297.60 234.50 C 296.60 238.50 291.80 240.20 287.70 241.00 C 269.50 244.40 250.20 242.00 233.40 234.20 C 240.60 223.80 246.50 212.60 250.90 200.70 C 265.20 201.30 279.50 202.00 293.80 202.60 C 296.30 202.70 298.90 202.80 301.30 202.00 C 303.70 201.10 305.80 199.10 306.00 196.60" fill="#0e538c" fill-rule="nonzero" group-id="3" node-id="148" stroke="none" target-height="48.399994" target-width="83.70001" target-x="233.4" target-y="196"></path><path d="M 141.90 319.70 L 137.70 314.80 C 137.70 314.80 134.70 312.30 130.40 306.70 C 129.30 305.30 128.50 303.60 127.90 301.90 C 127.20 299.80 126.40 297.00 126.50 295.30 C 126.60 293.20 124.10 292.20 122.90 293.70 C 121.70 295.20 121.50 300.90 124.10 307.00 C 126.70 313.10 117.40 308.30 114.00 306.50 C 110.60 304.80 99.80 300.00 98.40 300.60 C 96.40 301.50 97.00 303.80 100.50 305.50 C 104.00 307.20 113.90 312.80 113.00 314.50 C 112.00 316.20 94.80 307.30 94.80 307.30 C 94.80 307.30 91.40 304.80 90.20 306.80 C 88.00 310.40 107.10 318.60 108.90 319.30 C 110.20 319.80 109.20 321.80 107.80 321.10 C 106.40 320.50 90.80 311.80 88.50 315.40 C 86.80 318.20 104.10 322.30 106.30 325.90 C 108.50 329.50 93.50 321.50 91.90 324.20 C 91.30 325.20 91.00 326.10 100.40 329.40 C 109.90 332.80 137.30 338.00 137.30 338.00 L 141.70 319.20" fill="#ff957e" fill-rule="nonzero" node-id="151" stroke="none" target-height="45.799988" target-width="55.09999" target-x="86.8" target-y="292.2"></path><path d="M 219.20 275.30 C 219.20 275.30 203.60 320.40 198.80 320.80 C 165.90 323.80 130.10 309.60 130.10 309.60 L 121.10 335.00 C 121.10 335.00 214.30 376.70 234.30 336.50 C 255.60 293.90 254.50 287.20 254.50 287.20 L 219.20 275.30 Z" fill="#fcd2b1" fill-rule="nonzero" node-id="153" stroke="none" target-height="101.400024" target-width="134.5" target-x="121.1" target-y="275.3"></path><path d="M 221.30 530.30 C 238.00 607.00 347.80 678.30 347.80 678.30 L 366.50 655.40 C 366.50 655.40 278.20 576.70 274.50 541.70 C 270.70 506.70 300.00 451.80 300.00 451.80 L 269.60 438.90 L 221.30 530.30 Z" fill="#0b4870" fill-rule="nonzero" node-id="155" stroke="none" target-height="239.4" target-width="145.2" target-x="221.3" target-y="438.9"></path><path d="M 258.40 251.00 C 258.90 247.80 257.70 234.60 257.70 234.60 C 257.70 234.60 245.60 233.30 244.90 221.30 C 244.20 209.30 244.90 181.70 244.90 181.70 L 266.90 170.90 L 291.10 189.20 L 287.40 249.10 L 258.40 251.00 Z" fill="#ffe3ca" fill-rule="nonzero" node-id="157" stroke="none" target-height="80.100006" target-width="46.90001" target-x="244.2" target-y="170.9"></path><path d="M 289.40 198.60 C 289.40 198.60 269.60 196.70 266.20 178.80 L 244.80 198.60 C 244.80 198.60 238.30 185.30 250.20 173.00 C 262.10 160.70 270.20 163.20 274.90 163.20 C 279.20 163.20 301.20 167.90 307.70 192.80 C 308.20 194.60 308.60 199.10 308.90 201.10 L 289.40 198.60 Z" fill="#0e538c" fill-rule="nonzero" node-id="159" stroke="none" target-height="40.40001" target-width="70.59999" target-x="238.3" target-y="160.7"></path><path d="M 257.80 234.70 C 257.80 234.70 265.90 234.80 273.70 229.30 C 273.70 229.30 270.10 238.10 258.10 237.60 L 257.80 234.70 Z" fill="#fcd2b1" fill-rule="nonzero" node-id="161" stroke="none" target-height="8.800003" target-width="15.900024" target-x="257.8" target-y="229.3"></path><path d="M 232.90 386.10 C 232.90 390.40 234.40 396.30 234.40 396.30 L 319.40 420.80 C 319.40 420.80 325.50 382.40 310.00 361.00 C 302.90 351.20 304.50 337.40 307.40 325.60 L 317.40 285.30 L 304.00 247.40 L 250.50 251.00 C 250.50 251.00 219.50 247.90 208.70 288.90 L 228.60 318.80 L 228.80 330.10 L 232.90 386.10 Z" fill="#55b3ff" fill-rule="nonzero" node-id="163" stroke="none" target-height="173.4" target-width="116.8" target-x="208.7" target-y="247.4"></path><path d="M 315.80 371.10 C 316.70 371.10 332.10 405.60 318.20 426.10 C 316.90 428.00 313.70 432.70 309.40 439.40 C 288.80 471.00 241.80 545.30 240.20 556.20 C 238.30 569.40 200.30 707.90 200.30 707.90 L 172.00 703.40 L 195.10 546.30 L 232.90 386.10 L 315.80 371.10 Z" fill="#0e538c" fill-rule="nonzero" node-id="165" stroke="none" target-height="336.80002" target-width="160.1" target-x="172" target-y="371.1"></path><path d="M 266.70 177.40 C 266.70 177.40 262.30 185.90 264.20 192.30 L 245.00 197.30 C 245.00 197.20 240.60 172.90 266.70 177.40 Z" fill="#0e538c" fill-rule="nonzero" node-id="167" stroke="none" target-height="24.40001" target-width="26.100006" target-x="240.6" target-y="172.9"></path><path d="M 307.90 199.30 C 307.90 199.30 310.10 226.90 288.80 231.80 L 290.20 198.50 L 307.90 199.30 Z" fill="#0e538c" fill-rule="nonzero" node-id="169" stroke="none" target-height="33.300003" target-width="21.300018" target-x="288.8" target-y="198.5"></path><path d="M 220.70 327.90 L 173.00 348.00 L 94.90 349.70 L 56.90 285.20 L 137.20 279.80 L 172.00 342.20 L 220.40 323.40 Z" fill="#55b3ff" fill-rule="nonzero" node-id="171" stroke="none" target-height="69.900024" target-width="163.79999" target-x="56.9" target-y="279.8"></path><path d="M 212.10 280.50 L 198.70 313.20 L 228.70 328.10 L 231.50 299.50 Z" fill="#55b3ff" fill-rule="nonzero" node-id="173" stroke="none" target-height="47.600006" target-width="32.800003" target-x="198.7" target-y="280.5"></path><path d="M 269.90 245.00 L 259.00 249.70 L 261.20 271.70 L 275.00 247.00 Z" fill="#ffe3ca" fill-rule="nonzero" node-id="175" stroke="none" target-height="26.700012" target-width="16" target-x="259" target-y="245"></path><path d="M 169.40 703.40 C 169.40 703.40 144.50 710.00 150.70 711.90 C 156.90 713.80 200.00 709.10 200.00 709.10 L 201.40 704.20 L 169.40 703.40 Z" fill="#0e538c" fill-rule="nonzero" group-id="4" node-id="179" stroke="none" target-height="10.399963" target-width="56.899994" target-x="144.5" target-y="703.4"></path><path d="M 200.00 709.10 L 208.80 685.40 L 170.60 685.40 L 169.40 703.40 Z" fill="#0e538c" fill-rule="nonzero" group-id="4" node-id="181" stroke="none" target-height="23.699951" target-width="39.40001" target-x="169.4" target-y="685.4"></path><path d="M 348.10 679.90 C 348.10 679.90 341.80 704.90 346.50 700.40 C 351.10 695.90 368.10 656.00 368.10 656.00 L 364.50 652.40 L 348.10 679.90 Z" fill="#0b4870" fill-rule="nonzero" group-id="5" node-id="186" stroke="none" target-height="52.5" target-width="26.300018" target-x="341.8" target-y="652.4"></path><path d="M 368.00 656.00 L 351.50 636.80 L 333.00 670.10 L 348.10 679.90 Z" fill="#0b4870" fill-rule="nonzero" group-id="5" node-id="188" stroke="none" target-height="43.100037" target-width="35" target-x="333" target-y="636.8"></path><path d="M 292.50 213.70 C 292.40 211.70 292.40 209.60 293.10 207.80 C 293.80 205.90 295.40 204.30 297.40 204.10 C 299.70 203.90 301.90 205.80 302.30 208.00 C 302.70 210.30 301.30 212.60 299.30 213.80 C 297.30 214.90 294.80 214.90 292.60 214.00" fill="#ffe3ca" fill-rule="nonzero" node-id="191" stroke="none" target-height="11" target-width="10.300018" target-x="292.4" target-y="203.9"></path><path d="M 278.90 387.70 C 278.90 387.70 277.80 277.00 281.70 268.60 C 281.70 268.60 285.80 247.80 301.70 247.40 L 294.60 248.00 C 294.60 248.00 280.20 247.00 276.00 275.30 C 271.90 303.60 272.10 388.60 272.10 388.60 L 278.90 387.70 Z" fill="#0e538c" fill-rule="nonzero" node-id="193" stroke="none" target-height="141.6" target-width="29.800018" target-x="271.9" target-y="247"></path><path d="M 248.10 391.60 C 248.10 391.60 243.80 264.40 247.20 251.00 L 242.90 251.00 C 242.90 251.00 239.10 261.90 239.80 292.40 C 240.30 310.70 239.80 391.60 239.80 391.60 L 248.10 391.60 Z" fill="#0e538c" fill-rule="nonzero" node-id="195" stroke="none" target-height="140.6" target-width="9" target-x="239.1" target-y="251"></path><path d="M 197.40 335.20 C 197.40 335.20 176.60 348.40 172.00 348.30 C 167.50 348.20 154.40 347.90 155.80 349.70 C 157.20 351.50 172.00 354.00 172.00 354.00 L 197.40 335.20 Z" fill="#ffe3ca" fill-rule="nonzero" node-id="197" stroke="none" target-height="18.799988" target-width="43" target-x="154.4" target-y="335.2"></path><path d="M 198.90 363.00 C 198.90 363.00 297.40 389.50 310.90 346.70 C 325.20 301.30 325.40 313.10 325.40 313.10 L 294.50 283.30 C 294.50 283.30 277.90 335.70 273.20 336.90 C 247.30 343.50 217.90 339.30 207.50 337.40 C 206.30 336.40 205.00 335.30 203.40 333.80 C 202.10 332.60 201.00 331.10 200.20 329.50 C 199.20 327.50 198.00 324.90 197.80 323.20 C 197.50 321.10 194.90 320.50 194.00 322.10 C 193.10 323.70 193.70 329.40 197.30 335.00 C 197.30 335.00 173.80 350.10 171.90 353.70 L 198.90 363.00 Z" fill="#ffe3ca" fill-rule="nonzero" node-id="199" stroke="none" target-height="106.20001" target-width="153.5" target-x="171.9" target-y="283.3"></path><path d="M 304.00 247.40 C 304.00 247.40 326.50 251.70 327.40 287.10 C 328.30 322.50 314.00 349.60 314.00 349.60 L 275.80 329.70 L 304.00 247.40" fill="#55b3ff" fill-rule="nonzero" node-id="201" stroke="none" target-height="102.20001" target-width="52.5" target-x="275.8" target-y="247.4"></path><path d="M 500.20 596.80 L 397.00 596.80 C 392.20 596.80 388.30 592.90 388.30 588.10 L 388.30 588.10 C 388.30 583.30 392.20 579.40 397.00 579.40 L 500.10 579.40 C 504.90 579.40 508.80 583.30 508.80 588.10 L 508.80 588.10 C 508.90 592.90 505.00 596.80 500.20 596.80 Z" fill="#d3d3d3" fill-rule="nonzero" node-id="203" stroke="none" target-height="17.399963" target-width="120.600006" target-x="388.3" target-y="579.4"></path><path d="M 427.23 706.73 L 427.23 697.93 L 516.03 697.93 L 516.03 706.73 Z" fill="#0b4870" fill-rule="nonzero" group-id="6,8" node-id="209" stroke="none" target-height="8.799988" target-width="88.80002" target-x="427.23" target-y="697.93"></path><path d="M 435.40 705.00 C 436.20 709.60 433.10 713.90 428.50 714.60 C 423.90 715.40 419.60 712.30 418.90 707.70 C 418.10 703.10 421.20 698.80 425.80 698.10 C 430.40 697.30 434.70 700.40 435.40 705.00 Z" fill="#0b4870" fill-rule="nonzero" group-id="6" node-id="212" stroke="none" target-height="18.100037" target-width="18.100006" target-x="418.1" target-y="697.3"></path><path d="M 466.80 591.10 L 475.60 591.10 L 475.60 701.50 L 466.80 701.50 Z" fill="#0b4870" fill-rule="nonzero" group-id="6" node-id="214" stroke="none" target-height="110.400024" target-width="8.800018" target-x="466.8" target-y="591.1"></path><path d="M 524.20 705.00 C 525.00 709.60 521.90 713.90 517.30 714.60 C 512.70 715.40 508.40 712.30 507.70 707.70 C 506.90 703.10 510.00 698.80 514.60 698.10 C 519.20 697.30 523.50 700.40 524.20 705.00 Z" fill="#0b4870" fill-rule="nonzero" group-id="6" node-id="216" stroke="none" target-height="18.100037" target-width="18.100006" target-x="506.9" target-y="697.3"></path><path d="M 527.20 596.80 L 429.80 596.80 C 423.20 596.80 418.40 590.30 420.30 583.80 L 466.80 423.40 C 468.00 419.10 471.90 416.10 476.30 416.10 L 573.70 416.10 C 580.30 416.10 585.10 422.60 583.20 429.10 L 536.70 589.50 C 535.50 593.90 531.60 596.80 527.20 596.80 Z" fill="#d3d3d3" fill-rule="nonzero" node-id="219" stroke="none" target-height="180.69998" target-width="166.69998" target-x="418.4" target-y="416.1"></path><path d="M 513.80 596.80 L 428.90 596.80 C 422.30 596.80 417.50 590.30 419.40 583.80 L 465.90 423.40 C 467.10 419.10 471.00 416.10 475.40 416.10 L 560.30 416.10 C 566.90 416.10 571.70 422.60 569.80 429.10 L 523.30 589.50 C 522.10 593.90 518.20 596.80 513.80 596.80 Z" fill="#f2f2f2" fill-rule="nonzero" node-id="221" stroke="none" target-height="180.69998" target-width="154.20001" target-x="417.5" target-y="416.1"></path><path d="M 527.20 596.80 L 424.00 596.80 C 419.20 596.80 415.30 592.90 415.30 588.10 L 415.30 588.10 C 415.30 583.30 419.20 579.40 424.00 579.40 L 527.10 579.40 C 531.90 579.40 535.80 583.30 535.80 588.10 L 535.80 588.10 C 535.90 592.90 532.00 596.80 527.20 596.80 Z" fill="#d3d3d3" fill-rule="nonzero" node-id="223" stroke="none" target-height="17.399963" target-width="120.60004" target-x="415.3" target-y="579.4"></path><path d="M 441.90 460.60 L 419.00 521.50 L 424.40 533.40 L 455.30 528.00 L 464.10 462.90 Z" fill="#fcd2b1" fill-rule="nonzero" node-id="225" stroke="none" target-height="72.80002" target-width="45.100006" target-x="419" target-y="460.6"></path><path d="M 455.80 431.00 C 455.80 431.00 437.70 440.50 433.70 471.70 L 457.60 484.80 L 455.80 431.00 Z" fill="#2a94f4" fill-rule="nonzero" node-id="227" stroke="none" target-height="53.799988" target-width="23.899994" target-x="433.7" target-y="431"></path><path d="M 485.00 419.10 L 456.50 431.10 L 434.00 531.20 L 509.20 560.80 L 549.30 446.60 C 549.30 446.60 542.80 422.80 505.20 416.70 L 485.00 419.10 Z" fill="#2a94f4" fill-rule="nonzero" node-id="229" stroke="none" target-height="144.09998" target-width="115.29999" target-x="434" target-y="416.7"></path><path d="M 561.00 536.60 C 561.00 535.30 560.20 527.40 559.80 526.10 L 547.40 446.80 C 545.00 435.90 532.80 430.40 523.10 435.80 C 515.90 439.80 512.70 448.30 515.50 456.00 L 530.20 524.10 L 561.00 536.60 Z" fill="#ffe3ca" fill-rule="nonzero" node-id="231" stroke="none" target-height="106.19998" target-width="48.299988" target-x="512.7" target-y="430.4"></path><path d="M 544.10 519.70 L 460.20 513.20 L 456.00 528.00 L 536.80 555.30 C 549.20 559.50 561.90 549.70 561.00 536.60 L 561.00 536.60 C 560.40 527.60 553.20 520.40 544.10 519.70 Z" fill="#ffe3ca" fill-rule="nonzero" node-id="233" stroke="none" target-height="46.299988" target-width="105.900024" target-x="456" target-y="513.2"></path><path d="M 539.00 433.40 C 539.00 433.40 549.70 438.00 554.30 465.80 L 516.50 477.40 C 516.50 477.40 491.80 449.70 518.20 431.20 L 539.00 433.40 Z" fill="#2a94f4" fill-rule="nonzero" node-id="235" stroke="none" target-height="46.19998" target-width="62.5" target-x="491.8" target-y="431.2"></path><path d="M 433.90 528.90 C 437.00 537.10 452.50 537.50 460.80 534.40 C 469.00 531.30 477.50 526.60 474.40 518.30 C 471.30 510.10 457.60 505.20 448.60 507.20 C 437.70 509.70 430.80 520.60 433.90 528.90 Z" fill="#ffe3ca" fill-rule="nonzero" node-id="237" stroke="none" target-height="32.299988" target-width="46.700012" target-x="430.8" target-y="505.2"></path><path d="M 479.60 540.10 L 419.70 532.40 L 420.60 525.60 L 480.50 533.30 C 482.40 533.50 483.70 535.20 483.40 537.10 L 483.40 537.10 C 483.10 539.00 481.40 540.30 479.60 540.10 Z" fill="#f2f2f2" fill-rule="nonzero" node-id="239" stroke="none" target-height="14.700012" target-width="64" target-x="419.7" target-y="525.6"></path><path d="M 427.60 533.40 L 348.20 523.20 C 343.60 522.60 340.00 519.10 339.40 514.50 L 331.10 456.90 C 330.40 451.80 334.70 447.40 339.80 448.10 L 412.70 457.50 C 415.80 457.90 418.20 460.30 418.60 463.30 L 427.60 533.40 Z" fill="#f2f2f2" fill-rule="nonzero" node-id="241" stroke="none" target-height="86.00003" target-width="97.20001" target-x="330.4" target-y="447.4"></path><path d="M 332.70 685.50 L 312.10 694.00 L 299.10 695.00 C 293.10 695.40 288.10 699.80 286.90 705.60 L 286.30 708.30 L 356.90 717.10 L 358.30 688.70 L 332.70 685.50 Z" fill="#0b4870" fill-rule="nonzero" node-id="243" stroke="none" target-height="31.599976" target-width="72" target-x="286.3" target-y="685.5"></path><path d="M 358.30 688.70 L 365.20 657.80 L 339.70 654.30 L 332.70 685.50 Z" fill="#ffe3ca" fill-rule="nonzero" node-id="245" stroke="none" target-height="34.400024" target-width="32.5" target-x="332.7" target-y="654.3"></path><path d="M 509.20 560.80 C 509.20 560.80 507.20 577.90 476.50 580.20 L 402.70 580.20 L 367.90 677.30 L 331.30 671.40 L 367.90 528.80 L 451.80 538.10 L 509.20 560.80 Z" fill="#0b4870" fill-rule="nonzero" node-id="247" stroke="none" target-height="148.5" target-width="177.90002" target-x="331.3" target-y="528.8"></path><path d="M 273.60 629.70 L 251.50 626.40 L 239.80 620.50 C 234.40 617.80 227.90 619.00 223.80 623.30 L 221.90 625.30 L 277.90 669.10 L 293.70 645.50 L 273.60 629.70 Z" fill="#0e538c" fill-rule="nonzero" node-id="249" stroke="none" target-height="51.299988" target-width="71.80002" target-x="221.9" target-y="617.8"></path><path d="M 293.90 645.60 L 313.10 621.20 L 292.90 605.10 L 273.60 629.70 Z" fill="#ffe3ca" fill-rule="nonzero" node-id="251" stroke="none" target-height="40.5" target-width="39.5" target-x="273.6" target-y="605.1"></path><path d="M 434.00 531.20 L 377.10 514.20 C 374.70 513.50 372.40 512.60 370.00 511.80 C 365.10 509.90 352.70 507.30 343.10 522.00 C 330.80 540.90 281.50 611.90 281.50 611.90 L 311.60 634.10 L 377.30 550.40 C 382.80 542.80 391.60 538.30 401.00 538.30 L 451.80 538.20 L 434.00 531.20 Z" fill="#0e538c" fill-rule="nonzero" node-id="253" stroke="none" target-height="126.79999" target-width="170.29999" target-x="281.5" target-y="507.3"></path><path d="M 507.20 387.90 C 508.20 386.00 525.80 354.60 509.70 346.70 C 509.70 346.70 507.60 330.10 489.10 331.90 C 470.60 333.70 475.60 339.10 463.80 336.40 C 452.00 333.70 440.90 339.80 441.80 349.70 C 442.70 359.60 450.20 363.80 463.80 361.40 C 477.40 359.00 488.20 360.80 488.20 360.80 L 499.60 364.10 L 507.20 387.90 Z" fill="#55b3ff" fill-rule="nonzero" node-id="255" stroke="none" target-height="57.799988" target-width="84.899994" target-x="440.9" target-y="330.1"></path><path d="M 509.40 421.90 L 508.00 382.00 L 480.40 391.80 L 482.60 423.80 C 483.10 431.20 487.20 437.00 494.60 436.50 L 496.90 436.40 C 504.30 435.70 509.90 429.30 509.40 421.90 Z" fill="#ffe3ca" fill-rule="nonzero" group-id="7" node-id="259" stroke="none" target-height="55" target-width="29.5" target-x="480.4" target-y="382"></path><path d="M 505.60 387.50 C 505.60 387.50 510.80 420.80 482.40 422.70 L 481.10 406.90 L 505.60 387.50 Z" fill="#fcd2b1" fill-rule="nonzero" node-id="262" stroke="none" target-height="35.200012" target-width="29.699982" target-x="481.1" target-y="387.5"></path><path d="M 482.20 415.30 L 483.20 415.30 C 497.40 414.60 508.30 402.60 507.60 388.40 L 506.20 359.40 C 506.00 355.70 502.90 352.90 499.20 353.10 L 465.40 354.70 C 458.90 355.00 453.80 360.60 454.10 367.10 L 455.20 390.80 C 456.00 405.00 468.00 415.90 482.20 415.30 Z" fill="#ffe3ca" fill-rule="nonzero" node-id="264" stroke="none" target-height="63" target-width="54.5" target-x="453.8" target-y="352.9"></path><path d="M 501.10 379.70 C 501.30 384.50 505.40 388.20 510.20 387.90 C 515.00 387.70 518.70 383.60 518.40 378.80 C 518.20 374.00 514.10 370.30 509.30 370.60 C 504.60 370.80 500.90 374.90 501.10 379.70 Z" fill="#ffe3ca" fill-rule="nonzero" node-id="266" stroke="none" target-height="17.900024" target-width="17.800018" target-x="500.9" target-y="370.3"></path><path d="M 497.00 356.50 L 498.70 388.80 C 498.90 391.70 497.70 394.70 495.20 396.30 C 493.70 397.40 492.50 398.80 489.80 398.40 C 482.10 397.30 485.70 391.60 470.00 392.40 C 455.70 393.20 456.80 401.10 456.80 401.10 C 456.80 401.10 459.60 416.20 479.20 416.90 C 498.80 417.60 508.60 405.20 506.30 388.70 L 504.40 354.60 L 497.00 356.50 Z" fill="#55b3ff" fill-rule="nonzero" node-id="268" stroke="none" target-height="63" target-width="52.899994" target-x="455.7" target-y="354.6"></path><path d="M 455.10 362.00 C 455.10 362.00 464.20 363.40 477.50 360.20 C 490.70 356.90 501.20 367.60 501.20 367.60 C 501.20 367.60 504.00 372.50 504.70 372.40 C 505.40 372.30 509.40 370.70 509.40 370.70 L 509.20 355.80 L 499.50 348.20 L 472.60 347.10 L 456.70 350.60 L 455.10 362.00 Z" fill="#55b3ff" fill-rule="nonzero" node-id="270" stroke="none" target-height="25.399994" target-width="54.299988" target-x="455.1" target-y="347.1"></path></svg>